<svg xmlns:inkscape="http://www.inkscape.org/namespaces/inkscape" xmlns:sodipodi="http://sodipodi.sourceforge.net/DTD/sodipodi-0.dtd" xmlns="http://www.w3.org/2000/svg" xmlns:svg="http://www.w3.org/2000/svg" id="svg2" width="456.88" height="161.67999" viewBox="0 0 456.88 161.67999" sodipodi:docname="city_club_horizontal_logo-11.eps"><defs id="defs6"></defs><g id="g8" inkscape:groupmode="layer" inkscape:label="ink_ext_XXXXXX" transform="matrix(1.3333333,0,0,-1.3333333,0,161.68)"><g id="g10" transform="scale(0.1)"><path d="m 1346.08,350.246 c 5.9,0 10.99,1.453 15.29,4.356 4.3,2.898 7.6,7 9.9,12.293 2.31,5.304 3.46,11.503 3.46,18.605 0,8.301 -1.48,15.398 -4.43,21.297 -2.95,5.898 -6.9,10.449 -11.86,13.652 -4.94,3.203 -10.47,4.797 -16.56,4.797 -5.61,0 -10.53,-1.418 -14.79,-4.269 -4.25,-2.852 -7.54,-6.934 -9.9,-12.227 -2.34,-5.301 -3.51,-11.551 -3.51,-18.75 0,-8.203 1.46,-15.273 4.41,-21.23 2.95,-5.946 6.87,-10.516 11.78,-13.719 4.9,-3.203 10.31,-4.805 16.21,-4.805 z m -3.46,-13.801 c -9.71,0 -18.3,2.18 -25.8,6.524 -7.5,4.355 -13.4,10.351 -17.7,18.008 -4.29,7.648 -6.44,16.32 -6.44,26.027 0,7.996 1.39,15.195 4.2,21.59 2.79,6.406 6.66,11.855 11.62,16.359 4.94,4.5 10.59,7.969 16.95,10.418 6.35,2.453 13.07,3.684 20.18,3.684 9.59,0 18.12,-2.18 25.57,-6.535 7.44,-4.344 13.3,-10.321 17.55,-17.918 4.24,-7.598 6.37,-16.301 6.37,-26.106 0,-7.996 -1.41,-15.195 -4.2,-21.601 -2.79,-6.395 -6.62,-11.875 -11.48,-16.426 -4.85,-4.551 -10.41,-8.016 -16.72,-10.418 -6.29,-2.403 -12.99,-3.606 -20.1,-3.606" style="fill:#2a2e28;fill-opacity:1;fill-rule:nonzero;stroke:none" id="path12"></path><path d="m 1453.01,377.246 v 15 h 48.91 v -15 z m -5.84,-38.848 v 98.704 h 60.45 v -15 h -41.54 v -83.704 h -18.91" style="fill:#2a2e28;fill-opacity:1;fill-rule:nonzero;stroke:none" id="path14"></path><path d="m 1673.97,336.445 c -11.41,0 -21.25,2.082 -29.55,6.231 -8.3,4.152 -14.67,9.922 -19.12,17.324 -4.46,7.402 -6.68,15.996 -6.68,25.801 0,7.695 1.4,14.797 4.2,21.301 2.79,6.492 6.71,12.117 11.77,16.875 5.06,4.746 11,8.445 17.86,11.101 6.85,2.649 14.37,3.977 22.57,3.977 5.59,0 11.39,-0.735 17.41,-2.18 5.99,-1.453 11.28,-3.777 15.89,-6.973 l -8.39,-17.254 c -4.91,4.805 -9.95,8.047 -15.08,9.754 -5.16,1.7 -9.83,2.551 -14.03,2.551 -6.7,0 -12.4,-1.535 -17.11,-4.582 -4.68,-3.047 -8.3,-7.293 -10.8,-12.742 -2.5,-5.461 -3.75,-11.731 -3.75,-18.828 0,-7.598 1.59,-14.309 4.73,-20.098 3.14,-5.801 7.58,-10.332 13.28,-13.574 5.7,-3.254 12.4,-4.883 20.1,-4.883 4.1,0 8.2,0.43 12.3,1.277 4.11,0.852 7.89,2.325 11.39,4.426 l -9.75,-11.25 v 30 h -17.24 v 13.797 h 34.94 v -43.945 c -3.4,-1.805 -7.03,-3.301 -10.94,-4.5 -3.9,-1.203 -7.87,-2.102 -11.93,-2.707 -4.04,-0.594 -8.07,-0.899 -12.07,-0.899" style="fill:#2a2e28;fill-opacity:1;fill-rule:nonzero;stroke:none" id="path16"></path><path d="m 1837.46,336.75 c -4.19,0 -7.87,0.574 -11.03,1.727 -3.15,1.144 -6.02,2.968 -8.61,5.468 -2.62,2.5 -5.32,5.852 -8.11,10.051 l -18.46,28.203 14.87,5.254 21.6,-27.004 c 2.38,-2.898 4.53,-5.125 6.44,-6.679 1.9,-1.543 3.68,-2.567 5.32,-3.067 1.66,-0.508 3.18,-0.75 4.59,-0.75 0.58,0 1.46,0.047 2.61,0.145 1.16,0.097 2.23,0.351 3.23,0.754 l 4.06,-10.657 c -3.2,-1.297 -6.13,-2.195 -8.79,-2.695 -2.64,-0.496 -5.22,-0.75 -7.72,-0.75 z m -74.1,1.648 v 98.704 h 29.4 c 7.5,0 14,-1.055 19.51,-3.157 5.49,-2.097 9.75,-5.078 12.73,-8.925 3.01,-3.848 4.52,-8.418 4.52,-13.719 0,-4.406 -1.02,-8.606 -3.01,-12.598 -1.99,-4.004 -4.73,-7.558 -8.17,-10.656 -3.45,-3.094 -7.38,-5.547 -11.77,-7.344 -4.42,-1.805 -9.01,-2.703 -13.81,-2.703 h -22.66 v 12.598 h 25.06 c 2.79,0 5.35,0.8 7.66,2.402 2.28,1.602 4.14,3.719 5.54,6.375 1.39,2.648 2.09,5.527 2.09,8.625 0,4.598 -1.66,8.301 -5.02,11.102 -3.36,2.793 -8.12,4.199 -14.31,4.199 h -9.46 v -84.903 h -18.3" style="fill:#2a2e28;fill-opacity:1;fill-rule:nonzero;stroke:none" id="path18"></path><path d="m 1901.21,381.152 v 14.551 h 48.31 v -14.551 z m 59.11,-42.754 h -64.96 v 98.704 h 59.86 v -15 h -41.56 v -68.704 h 46.66 v -15" style="fill:#2a2e28;fill-opacity:1;fill-rule:nonzero;stroke:none" id="path20"></path><path d="m 2018.07,381.152 v 14.551 h 48.3 v -14.551 z m 59.1,-42.754 h -64.96 v 98.704 h 59.86 v -15 h -41.56 v -68.704 h 46.66 v -15" style="fill:#2a2e28;fill-opacity:1;fill-rule:nonzero;stroke:none" id="path22"></path><path d="m 2216.66,437.102 v -98.704 h -14.84 l -2.56,98.704 z m -7.95,-98.704 h -7.5 l -66.15,86.106 0.3,12.598 h 12.3 l 60.61,-78.75 z m -79.64,0 v 98.704 h 14.84 l 2.56,-98.704 h -17.4" style="fill:#2a2e28;fill-opacity:1;fill-rule:nonzero;stroke:none" id="path24"></path><path d="m 2301.25,338.398 -35.7,98.704 h 21.47 l 32.24,-94.504 h -11.56 l 30.9,94.504 h 18.75 l -37.5,-98.704 h -18.6" style="fill:#2a2e28;fill-opacity:1;fill-rule:nonzero;stroke:none" id="path26"></path><path d="m 2407.02,338.398 v 98.704 h 19.64 v -98.704 h -19.64" style="fill:#2a2e28;fill-opacity:1;fill-rule:nonzero;stroke:none" id="path28"></path><path d="m 2491.76,338.398 v 14.856 h 60 v -14.856 z m -5.86,0 v 98.704 h 18.91 v -98.704 h -18.91" style="fill:#2a2e28;fill-opacity:1;fill-rule:nonzero;stroke:none" id="path30"></path><path d="m 2604.71,338.398 v 14.856 h 60 v -14.856 z m -5.86,0 v 98.704 h 18.91 v -98.704 h -18.91" style="fill:#2a2e28;fill-opacity:1;fill-rule:nonzero;stroke:none" id="path32"></path><path d="m 2717.66,381.152 v 14.551 h 48.3 v -14.551 z m 59.1,-42.754 h -64.96 v 98.704 h 59.86 v -15 h -41.56 v -68.704 h 46.66 v -15" style="fill:#2a2e28;fill-opacity:1;fill-rule:nonzero;stroke:none" id="path34"></path><path d="m 1247.8,597.129 c -28.12,-20.399 -63.49,-29.93 -100.68,-29.93 -95.23,0 -159.167,52.606 -159.167,145.117 0,87.977 66.207,151.922 158.717,151.922 44.45,0 78.91,-10.429 109.75,-28.574 l -20.86,-41.719 c -22.23,22.676 -48.98,39.914 -85.26,39.914 -51.69,0 -90.7,-40.363 -90.7,-114.738 0,-79.812 38.55,-121.082 96.6,-121.082 25.84,0 52.6,6.805 75.73,26.309 l 15.87,-27.219" style="fill:#2a2e28;fill-opacity:1;fill-rule:nonzero;stroke:none" id="path36"></path><path d="m 1303.61,574.004 v 283.43 h 66.66 v -283.43 h -66.66" style="fill:#2a2e28;fill-opacity:1;fill-rule:nonzero;stroke:none" id="path38"></path><path d="m 1496.79,574.004 v 251.691 c -47.62,-1.359 -67.57,-5.441 -91.15,-14.511 v 46.25 h 248.06 v -46.25 c -22.67,9.07 -44.44,13.152 -90.24,14.511 V 574.004 h -66.67" style="fill:#2a2e28;fill-opacity:1;fill-rule:nonzero;stroke:none" id="path40"></path><path d="m 1768,574.004 v 118.82 l -95.23,164.61 h 73.01 l 71.2,-126.524 h 4.08 l 72.11,126.524 h 35.82 L 1834.66,693.273 V 574.004 H 1768" style="fill:#2a2e28;fill-opacity:1;fill-rule:nonzero;stroke:none" id="path42"></path><path d="m 2299.51,597.129 c -28.12,-20.399 -63.49,-29.93 -100.68,-29.93 -95.23,0 -159.17,52.606 -159.17,145.117 0,87.977 66.21,151.922 158.72,151.922 44.45,0 78.91,-10.429 109.75,-28.574 l -20.86,-41.719 c -22.23,22.676 -48.99,39.914 -85.26,39.914 -51.7,0 -90.7,-40.363 -90.7,-114.738 0,-79.812 38.55,-121.082 96.59,-121.082 25.85,0 52.61,6.805 75.74,26.309 l 15.87,-27.219" style="fill:#2a2e28;fill-opacity:1;fill-rule:nonzero;stroke:none" id="path44"></path><path d="m 2355.31,574.004 v 283.43 h 66.67 V 606.203 h 35.37 c 48.52,0 69.83,4.531 92.06,13.602 v -45.801 h -194.1" style="fill:#2a2e28;fill-opacity:1;fill-rule:nonzero;stroke:none" id="path46"></path><path d="m 2786.15,857.434 h 32.64 V 676.035 c 0,-70.281 -48.97,-108.836 -117.45,-108.836 -68.47,0 -117.45,37.188 -117.45,110.203 v 180.032 h 66.66 V 688.742 c 0,-53.515 23.58,-82.988 68.03,-82.988 45.34,0 67.57,31.738 67.57,80.262 v 171.418" style="fill:#2a2e28;fill-opacity:1;fill-rule:nonzero;stroke:none" id="path48"></path><path d="m 2975.26,604.387 c 39,0 62.59,19.961 62.59,49.433 0,31.289 -29.49,50.34 -69.85,50.34 h -18.13 v -99.773 z m -0.91,128.797 c 33.1,0.449 55.33,19.043 55.33,45.8 0,28.118 -20.86,48.067 -60.31,48.067 h -19.5 V 733.184 Z M 2883.2,574.453 v 282.531 l 100.68,1.817 c 84.8,1.355 116.09,-24.492 116.09,-66.672 0,-35.371 -28.12,-59.402 -64.85,-68.477 v -2.714 c 46.26,-8.165 74.38,-32.196 74.38,-70.293 0,-47.618 -36.74,-79.813 -131.97,-77.997 l -94.33,1.805" style="fill:#2a2e28;fill-opacity:1;fill-rule:nonzero;stroke:none" id="path50"></path><path d="m 444.031,333.547 v 276.008 l 65.52,44.734 v 159.93 H 660.859 V 622.988 l 37.762,30.543 29.024,23.317 v -18.883 -2.789 -181.598 c -5.45,-0.758 -11.028,-1.644 -16.602,-2.66 V 642.379 L 660.859,601.828 V 458.371 c -5.449,-1.648 -10.898,-3.547 -16.472,-5.449 V 588.52 L 616.504,565.961 V 442.023 c -5.449,-2.406 -10.899,-4.812 -16.473,-7.347 V 573.82 l 22.176,17.868 22.18,17.996 V 797.746 H 526.023 V 655.051 L 566.32,634.395 V 417.691 c -5.449,-3.039 -10.894,-6.078 -16.472,-9.25 v 215.817 l -23.825,12.289 V 393.871 C 520.574,390.32 515,386.773 509.551,382.973 V 634.395 L 460.508,600.938 V 346.98 c -5.449,-4.308 -10.899,-8.871 -16.477,-13.433" style="fill:#af663a;fill-opacity:1;fill-rule:evenodd;stroke:none" id="path52"></path><path d="M 444.09,609.527 V 333.656 c 1.566,1.289 3.129,2.578 4.687,3.86 3.836,3.16 7.801,6.425 11.676,9.488 v 253.965 l 0.027,0.011 49.125,33.508 V 383.07 c 4.313,3.012 8.758,5.895 13.067,8.68 1.105,0.715 2.207,1.434 3.297,2.148 v 242.743 l 0.082,-0.043 23.851,-12.309 V 408.531 c 5.387,3.067 10.602,5.977 16.364,9.188 v 216.644 l -40.297,20.653 V 797.797 H 644.441 V 609.652 l -0.019,-0.011 -22.184,-17.996 -22.152,-17.856 V 434.758 c 5.332,2.43 10.637,4.765 15.769,7.043 l 0.594,0.262 v 123.925 l 0.024,0.016 27.968,22.621 V 453 l 2.329,0.793 c 4.828,1.648 9.386,3.203 14.035,4.621 v 143.441 l 0.019,0.012 50.274,40.617 V 470.98 c 5.359,0.973 10.91,1.868 16.492,2.645 v 203.117 l -28.934,-23.25 -37.851,-30.609 v 191.285 h -151.2 V 654.262 l -0.027,-0.012 z m -0.11,-276.086 v 276.141 l 0.028,0.012 65.488,44.722 V 814.273 H 660.914 V 623.098 l 37.676,30.472 29.109,23.383 V 473.531 l -0.051,-0.008 c -5.617,-0.777 -11.199,-1.668 -16.597,-2.656 l -0.063,-0.004 V 642.27 L 660.914,601.801 V 458.332 l -0.039,-0.008 c -4.664,-1.414 -9.238,-2.976 -14.074,-4.629 l -2.465,-0.843 V 588.414 L 616.559,565.938 V 441.992 l -0.036,-0.012 -0.628,-0.277 c -5.153,-2.277 -10.485,-4.64 -15.844,-7.074 l -0.074,-0.035 v 139.25 l 0.023,0.015 22.172,17.868 22.164,17.98 V 797.691 H 526.078 V 655.086 l 40.297,-20.652 V 417.668 l -0.027,-0.02 c -5.801,-3.238 -11.047,-6.164 -16.473,-9.25 l -0.078,-0.039 v 215.864 l -23.719,12.242 V 393.844 l -0.027,-0.016 c -1.102,-0.723 -2.211,-1.441 -3.328,-2.164 -4.325,-2.805 -8.797,-5.703 -13.145,-8.734 l -0.082,-0.063 V 634.301 L 460.563,600.914 V 346.949 l -0.02,-0.011 c -3.895,-3.071 -7.863,-6.336 -11.699,-9.504 -1.582,-1.301 -3.172,-2.618 -4.774,-3.922 l -0.09,-0.071" style="fill:#af663a;fill-opacity:1;fill-rule:nonzero;stroke:none" id="path54"></path><path d="m 374.07,205.449 -1.097,0.051 c -4.399,0.379 -8.344,2.969 -10.043,6.609 -1.461,3.114 -1.078,6.653 1.054,9.707 22.918,32.825 49.891,63.379 80.153,90.813 135.082,122.473 307.476,164.348 428.32,177.91 6.063,0.668 10.746,-2.906 11.406,-8.703 0.641,-5.731 -3.148,-12.16 -10.609,-12.996 C 827.418,463.695 782.66,455.336 740.215,443.996 586.719,402.98 460.02,320.004 383.457,210.352 c -2.203,-3.153 -5.578,-4.903 -9.387,-4.903" style="fill:#af663a;fill-opacity:1;fill-rule:nonzero;stroke:none" id="path56"></path><path d="m 386.676,373.695 c -2.367,0 -4.66,0.856 -6.594,2.5 -8.949,7.618 -17.258,15.461 -24.684,23.321 -63.457,67.101 -93.75,161.976 -81.043,253.793 11.059,79.839 54.79,153.828 119.981,203 65.898,49.675 151.109,70.546 233.844,57.254 79.398,-12.75 152.297,-58.11 199.992,-124.434 31.629,-43.977 50.851,-96.633 55.586,-152.285 0.242,-2.739 -0.699,-5.485 -2.567,-7.535 -1.89,-2.075 -4.586,-3.278 -7.378,-3.293 h -0.157 -0.086 c -5.16,-0.008 -9.41,3.914 -9.863,9.14 -5.281,61.125 -29.977,119.551 -69.535,164.52 -50.68,57.609 -123.258,93.086 -199.117,97.328 -76.524,4.301 -152.758,-22.543 -209.071,-73.609 -56.851,-51.547 -91.203,-124.77 -94.242,-200.895 -3.508,-87.625 34.696,-174.238 102.176,-231.684 2.656,-2.261 3.844,-5.382 3.262,-8.562 -0.653,-3.543 -3.41,-6.664 -7.035,-7.953 -1.153,-0.406 -2.317,-0.606 -3.469,-0.606" style="fill:#af663a;fill-opacity:1;fill-rule:nonzero;stroke:none" id="path58"></path><path d="M 860.172,483.543 C 813.566,382.078 712.516,313.574 600.449,310.723 c -29.984,-0.766 -60.457,4.394 -89.664,10.797 -12.926,2.832 -18.445,-17.032 -5.48,-19.872 27.8,-6.089 56.937,-11.179 85.449,-11.613 29.637,-0.453 59.766,3.867 88.238,12.008 55.348,15.82 106.082,47.219 144.938,89.699 22.097,24.16 40.367,51.653 54.035,81.403 5.496,11.964 -12.258,22.445 -17.793,10.398" style="fill:#af663a;fill-opacity:1;fill-rule:nonzero;stroke:none" id="path60"></path></g></g></svg>